<svg xmlns="http://www.w3.org/2000/svg" viewBox="0 0 1200 300" role="img" aria-labelledby="t d">
  <title id="t">AXIOM banner</title><desc id="d">AXIOM, AI stock intelligence that shows its work, over a rising price line.</desc>
  <defs>
    <linearGradient id="bg" x1="0" y1="0" x2="1" y2="1"><stop offset="0" stop-color="#0b1220"/><stop offset="1" stop-color="#16264a"/></linearGradient>
    <linearGradient id="ln" x1="0" y1="0" x2="1" y2="0"><stop offset="0" stop-color="#38bdf8"/><stop offset="1" stop-color="#818cf8"/></linearGradient>
    <linearGradient id="fl" x1="0" y1="0" x2="0" y2="1"><stop offset="0" stop-color="#38bdf8" stop-opacity=".28"/><stop offset="1" stop-color="#38bdf8" stop-opacity="0"/></linearGradient>
  </defs>
  <rect width="1200" height="300" rx="18" fill="url(#bg)"/>
  <g stroke="#ffffff" stroke-opacity=".07"><path d="M0 75H1200M0 150H1200M0 225H1200"/></g>
  <path d="M520 230 L580 214 L640 222 L700 186 L760 196 L820 150 L880 162 L940 112 L1000 128 L1060 74 L1130 58 L1130 300 L520 300Z" fill="url(#fl)"/>
  <path d="M520 230 L580 214 L640 222 L700 186 L760 196 L820 150 L880 162 L940 112 L1000 128 L1060 74 L1130 58" fill="none" stroke="url(#ln)" stroke-width="4" stroke-linejoin="round" stroke-linecap="round"/>
  <circle cx="1130" cy="58" r="7" fill="#818cf8"/>
  <text x="60" y="150" font-family="Segoe UI,Helvetica,Arial,sans-serif" font-size="84" font-weight="800" fill="#ffffff" letter-spacing="-2">AXIOM</text>
  <text x="62" y="196" font-family="Segoe UI,Helvetica,Arial,sans-serif" font-size="26" fill="#cbd5e1">AI stock intelligence that shows its work</text>
  <text x="62" y="240" font-family="Segoe UI,Helvetica,Arial,sans-serif" font-size="16" fill="#94a3b8">A LAZLAB Creations app · free · no account</text>
</svg>
